<?xml version="1.0" encoding="UTF-8" standalone="no"?>
<!DOCTYPE svg PUBLIC "-//W3C//DTD SVG 1.1//EN" "http://www.w3.org/Graphics/SVG/1.1/DTD/svg11.dtd">
<svg xmlns="http://www.w3.org/2000/svg" xmlns:xl="http://www.w3.org/1999/xlink" version="1.1" viewBox="0 0 50 39" width="50pt" height="39pt" xmlns:dc="http://purl.org/dc/elements/1.1/">
  <metadata> Produced by OmniGraffle 7.3.1 
    <dc:date>2017-05-28 14:15:56 +0000</dc:date>
  </metadata>
  <defs/>
  <g stroke="none" stroke-opacity="1" stroke-dasharray="none" fill="none" fill-opacity="1">
    <title>Logo 50x39</title>
    <rect fill="#64bc66" width="50" height="39"/>
    <g>
      <title>Layer 1</title>
      <path d="M 24.445122 17.914634 C 22.70122 13 20.243902 8.560976 16.59756 4.7560976 C 15.091463 3.1707317 13.42683 1.6646341 11.445122 .63414634 C 11.04878 .31707317 10.573171 .15853659 10.097561 0 C 10.097561 .07926829 10.018293 .07926829 10.018293 .15853659 C 10.176829 .31707317 10.256098 .47560976 10.414634 .55487805 C 11.365854 1.6646341 12.396341 2.6158537 13.268293 3.804878 C 15.646341 6.8963415 17.310976 10.463415 18.579268 14.109756 C 20.481707 19.579268 21.432927 25.286585 21.829268 31.07317 C 21.987805 33.689024 22.067073 36.30488 22.146341 38.841463 C 23.018293 38.92073 23.969512 39 24.841463 39 C 25.87195 39 26.90244 38.92073 27.85366 38.762195 C 27.77439 35.432927 27.615854 32.02439 27.060976 28.695122 C 26.585366 25.04878 25.713415 21.481707 24.445122 17.914634 Z" fill="white"/>
      <path d="M 44.5 14.585366 C 44.658537 14.347561 44.737805 14.109756 44.817073 13.792683 C 44.5 13.871951 44.182927 13.792683 44.02439 13.95122 C 43.231707 14.42683 42.439024 14.981707 41.72561 15.615854 C 37.682927 19.182927 34.908537 23.62195 33.164634 28.77439 C 32.213415 31.62805 31.658537 34.560976 31.5 37.57317 C 31.5 37.731707 31.5 37.96951 31.5 38.12805 C 33.640244 37.493902 35.62195 36.62195 37.52439 35.512195 C 37.682927 33.530488 37.92073 31.62805 38.317073 29.64634 C 39.109756 25.762195 40.29878 22.036585 42.28049 18.54878 C 42.835366 17.20122 43.707317 15.932927 44.5 14.585366 Z" fill="white"/>
      <path d="M 18.658537 29.963415 C 17.07317 25.12805 14.378049 20.92683 10.731707 17.439024 C 9.463415 16.25 8.115854 15.140244 6.609756 14.268293 C 6.213415 14.030488 5.737805 13.792683 5.182927 13.871951 C 6.054878 15.140244 7.085366 16.25 7.957317 17.59756 C 8.75 18.865854 9.621951 20.213415 10.335366 21.560976 C 11.04878 22.908537 11.682927 24.414634 12.158537 25.841463 C 12.634146 27.34756 13.109756 28.85366 13.42683 30.359756 C 13.743902 31.865854 13.981707 33.37195 14.140244 34.957317 C 14.219512 35.512195 14.219512 35.987805 14.219512 36.542683 C 16.121951 37.493902 18.103659 38.207317 20.164634 38.60366 C 20.085366 35.67073 19.609756 32.737805 18.658537 29.963415 Z" fill="white"/>
      <path d="M 39.03049 6.6585366 C 38.95122 6.737805 38.87195 6.817073 38.87195 6.8963415 C 35.463415 9.829268 33.32317 13.554878 31.817073 17.67683 C 30.865854 20.371951 30.231707 23.146341 29.756098 25.920732 C 29.756098 26 29.756098 26.158537 29.67683 26.317073 C 29.439024 25.207317 29.280488 24.17683 29.042683 23.146341 C 28.72561 21.79878 28.408537 20.530488 28.012195 19.182927 C 28.012195 19.02439 27.932927 18.865854 28.012195 18.707317 C 29.042683 16.012195 30.07317 13.95122 31.817073 11.652439 C 33.32317 9.75 34.987805 8.164634 37.207317 7.134146 C 37.762195 6.8963415 38.39634 6.737805 38.95122 6.5 C 38.95122 6.5 39.03049 6.579268 39.03049 6.6585366 Z" fill="white"/>
    </g>
  </g>
</svg>
